# xmcd
#
# Track frame offsets: 
#        150
#        19997
#        52438
#        79110
#        95421
#        121576
#        138451
#        156815
#        172590
#        192811
#        218253
#        232094
#        257283
#        273064
#        287237
#        301655
#        323872
#        339147
#
# Disc length: 4803 seconds
#
# Revision: 4
# Processed by: cddbd v1.5.2PL0 Copyright (c) Steve Scherf et al.
# Submitted via: ExactAudioCopy v1.0b4
#
DISCID=e712c112
DTITLE=Peter Green - Man Of The World - The Anthology 1968-1988 [ disk
DTITLE=2 ]
DYEAR=2004
DGENRE=Blues Rock
TTITLE0=Jumpin' At Shadows (live)
TTITLE1=Black Magic Woman (live)
TTITLE2=Big Boy Now
TTITLE3=You Won't See Me Anymore
TTITLE4=Got To See Her Tonight
TTITLE5=Same Old Blues
TTITLE6=Showbiz Blues
TTITLE7=Ride With Your Daddy Tonight
TTITLE8=Tribal Dance
TTITLE9=Give Me Back My Freedom
TTITLE10=Bandit
TTITLE11=Baby, When The Sun Goes Down
TTITLE12=What Am I Doing Here?
TTITLE13=Shining Star
TTITLE14=Apostle
TTITLE15=Stranger Blues
TTITLE16=Lazy Poker Blues
TTITLE17=The Green Manalishi
EXTD=YEAR: 2004
EXTT0=
EXTT1=
EXTT2=
EXTT3=
EXTT4=
EXTT5=
EXTT6=
EXTT7=
EXTT8=
EXTT9=
EXTT10=
EXTT11=
EXTT12=
EXTT13=
EXTT14=
EXTT15=
EXTT16=
EXTT17=
PLAYORDER=
